<?xml version="1.0" encoding="utf-8"?>
<!-- Generator: Adobe Illustrator 23.0.3, SVG Export Plug-In . SVG Version: 6.00 Build 0)  -->
<svg version="1.1" id="Layer_1" xmlns="http://www.w3.org/2000/svg" xmlns:xlink="http://www.w3.org/1999/xlink" x="0px" y="0px"
	 viewBox="0 0 387.9 387.9" style="enable-background:new 0 0 387.9 387.9;" xml:space="preserve">
<style type="text/css">
	.st0{fill:url(#SVGID_1_);}
	.st1{fill:url(#SVGID_2_);}
	.st2{fill:url(#SVGID_3_);}
	.st3{fill:url(#SVGID_4_);}
	.st4{fill:url(#SVGID_5_);}
	.st5{fill:url(#SVGID_6_);}
	.st6{fill:url(#SVGID_7_);}
	.st7{fill:url(#SVGID_8_);}
	.st8{fill:url(#SVGID_9_);}
	.st9{fill:url(#SVGID_10_);}
	.st10{fill:url(#SVGID_11_);}
	.st11{fill:url(#SVGID_12_);}
	.st12{fill:url(#SVGID_13_);}
	.st13{fill:url(#SVGID_14_);}
	.st14{fill:url(#SVGID_15_);}
	.st15{fill:url(#SVGID_16_);}
	.st16{fill:url(#SVGID_17_);}
	.st17{fill:url(#SVGID_18_);}
	.st18{fill:url(#SVGID_19_);}
	.st19{fill:url(#SVGID_20_);}
	.st20{fill:url(#SVGID_21_);}
	.st21{fill:url(#SVGID_22_);}
	.st22{fill:url(#SVGID_23_);}
	.st23{fill:url(#SVGID_24_);}
	.st24{fill:url(#SVGID_25_);}
	.st25{fill:url(#SVGID_26_);}
	.st26{fill:url(#SVGID_27_);}
	.st27{fill:url(#SVGID_28_);}
	.st28{fill:url(#SVGID_29_);}
	.st29{fill:url(#SVGID_30_);}
	.st30{fill:url(#SVGID_31_);}
	.st31{fill:url(#SVGID_32_);}
	.st32{fill:url(#SVGID_33_);}
	.st33{fill:url(#SVGID_34_);}
	.st34{fill:url(#SVGID_35_);}
	.st35{fill:url(#SVGID_36_);}
	.st36{fill:url(#SVGID_37_);}
	.st37{fill:url(#SVGID_38_);}
	.st38{fill:url(#SVGID_39_);}
	.st39{fill:url(#SVGID_40_);}
	.st40{fill:url(#SVGID_41_);}
	.st41{fill:url(#SVGID_42_);}
	.st42{fill:url(#SVGID_43_);}
	.st43{fill:url(#SVGID_44_);}
	.st44{fill:url(#SVGID_45_);}
	.st45{fill:url(#SVGID_46_);}
	.st46{fill:url(#SVGID_47_);}
	.st47{fill:url(#SVGID_48_);}
	.st48{fill:url(#SVGID_49_);}
	.st49{fill:url(#SVGID_50_);}
	.st50{fill:url(#SVGID_51_);}
	.st51{fill:url(#SVGID_52_);}
	.st52{fill:url(#SVGID_53_);}
	.st53{fill:url(#SVGID_54_);}
	.st54{fill:url(#SVGID_55_);}
	.st55{fill:url(#SVGID_56_);}
	.st56{fill:url(#SVGID_57_);}
	.st57{fill:url(#SVGID_58_);}
	.st58{fill:url(#SVGID_59_);}
	.st59{fill:url(#SVGID_60_);}
	.st60{fill:url(#SVGID_61_);}
	.st61{fill:url(#SVGID_62_);}
	.st62{fill:url(#SVGID_63_);}
	.st63{fill:url(#SVGID_64_);}
	.st64{fill:url(#SVGID_65_);}
	.st65{fill:url(#SVGID_66_);}
	.st66{fill:url(#SVGID_67_);}
	.st67{fill:url(#SVGID_68_);}
	.st68{fill:url(#SVGID_69_);}
	.st69{fill:url(#SVGID_70_);}
	.st70{fill:url(#SVGID_71_);}
	.st71{fill:url(#SVGID_72_);}
	.st72{fill:url(#SVGID_73_);}
	.st73{fill:url(#SVGID_74_);}
	.st74{fill:url(#SVGID_75_);}
	.st75{fill:url(#SVGID_76_);}
	.st76{fill:url(#SVGID_77_);}
	.st77{fill:url(#SVGID_78_);}
	.st78{fill:url(#SVGID_79_);}
	.st79{fill:url(#SVGID_80_);}
	.st80{fill:url(#SVGID_81_);}
	.st81{fill:url(#SVGID_82_);}
	.st82{fill:url(#SVGID_83_);}
	.st83{fill:url(#SVGID_84_);}
	.st84{fill:url(#SVGID_85_);}
	.st85{fill:url(#SVGID_86_);}
	.st86{fill:url(#SVGID_87_);}
	.st87{fill:url(#SVGID_88_);}
	.st88{fill:url(#SVGID_89_);}
	.st89{fill:url(#SVGID_90_);}
	.st90{fill:url(#SVGID_91_);}
	.st91{fill:url(#SVGID_92_);}
	.st92{fill:url(#SVGID_93_);}
	.st93{fill:url(#SVGID_94_);}
	.st94{fill:url(#SVGID_95_);}
	.st95{fill:url(#SVGID_96_);}
	.st96{fill:url(#SVGID_97_);}
	.st97{fill:url(#SVGID_98_);}
	.st98{fill:url(#SVGID_99_);}
	.st99{fill:url(#SVGID_100_);}
	.st100{fill:url(#SVGID_101_);}
	.st101{fill:url(#SVGID_102_);}
	.st102{fill:url(#SVGID_103_);}
	.st103{fill:url(#SVGID_104_);}
	.st104{fill:url(#SVGID_105_);}
	.st105{fill:url(#SVGID_106_);}
	.st106{fill:url(#SVGID_107_);}
	.st107{fill:url(#SVGID_108_);}
	.st108{fill:url(#SVGID_109_);}
	.st109{fill:url(#SVGID_110_);}
	.st110{fill:url(#SVGID_111_);}
	.st111{fill:url(#SVGID_112_);}
	.st112{fill:url(#SVGID_113_);}
	.st113{fill:url(#SVGID_114_);}
	.st114{fill:url(#SVGID_115_);}
	.st115{fill:url(#SVGID_116_);}
	.st116{fill:url(#SVGID_117_);}
	.st117{fill:url(#SVGID_118_);}
	.st118{fill:url(#SVGID_119_);}
	.st119{fill:url(#SVGID_120_);}
	.st120{fill:url(#SVGID_121_);}
	.st121{fill:url(#SVGID_122_);}
	.st122{fill:url(#SVGID_123_);}
	.st123{fill:url(#SVGID_124_);}
	.st124{fill:url(#SVGID_125_);}
	.st125{fill:url(#SVGID_126_);}
	.st126{fill:url(#SVGID_127_);}
	.st127{fill:url(#SVGID_128_);}
	.st128{fill:url(#SVGID_129_);}
	.st129{fill:url(#SVGID_130_);}
	.st130{fill:url(#SVGID_131_);}
	.st131{fill:url(#SVGID_132_);}
	.st132{fill:url(#SVGID_133_);}
	.st133{fill:url(#SVGID_134_);}
	.st134{fill:url(#SVGID_135_);}
	.st135{fill:url(#SVGID_136_);}
	.st136{fill:url(#SVGID_137_);}
	.st137{fill:url(#SVGID_138_);}
	.st138{fill:url(#SVGID_139_);}
	.st139{fill:url(#SVGID_140_);}
	.st140{fill:url(#SVGID_141_);}
	.st141{fill:url(#SVGID_142_);}
	.st142{fill:url(#SVGID_143_);}
	.st143{fill:url(#SVGID_144_);}
	.st144{fill:url(#SVGID_145_);}
	.st145{fill:url(#SVGID_146_);}
	.st146{fill:url(#SVGID_147_);}
	.st147{fill:url(#SVGID_148_);}
	.st148{fill:url(#SVGID_149_);}
	.st149{fill:url(#SVGID_150_);}
	.st150{fill:url(#SVGID_151_);}
	.st151{fill:url(#SVGID_152_);}
	.st152{fill:url(#SVGID_153_);}
	.st153{fill:url(#SVGID_154_);}
	.st154{fill:url(#SVGID_155_);}
	.st155{fill:url(#SVGID_156_);}
	.st156{fill:url(#SVGID_157_);}
	.st157{fill:url(#SVGID_158_);}
	.st158{fill:url(#SVGID_159_);}
	.st159{fill:url(#SVGID_160_);}
	.st160{fill:url(#SVGID_161_);}
	.st161{fill:url(#SVGID_162_);}
	.st162{fill:url(#SVGID_163_);}
	.st163{fill:url(#SVGID_164_);}
	.st164{fill:url(#SVGID_165_);}
	.st165{fill:url(#SVGID_166_);}
	.st166{fill:url(#SVGID_167_);}
	.st167{fill:url(#SVGID_168_);}
	.st168{fill:url(#SVGID_169_);}
	.st169{fill:url(#SVGID_170_);}
</style>
<g>
	<path d="M190.9,68.3C115.7,68.2,54.5,129,54.5,204.1c-0.1,75.1,60.8,136.2,135.9,136.3c75.2,0.1,136.1-60.8,136.1-136
		C326.5,129.3,265.8,68.3,190.9,68.3z M225,82c0-0.7,0-1.6,1.1-1.2c0.6,0.2,1.5,0.5,1.1,1.4c-0.3,0.7-0.3,1.7-1.4,1.9
		C224.8,83.7,225,82.8,225,82z M221.4,80.3c0.1,0.3-0.5,1.4-0.9,1.4c-1.6,0-2.4-1-2.9-2.7C219.2,79.1,220.7,78.7,221.4,80.3z
		 M162.6,328.8c-0.4,1.3-1.6,0.4-2.5,0.2c-49.8-11.5-89.6-55.1-96.6-105.7c-1.9-13.4-1.7-26.6,0.2-39.9c0.5-3.2,2.4-6,2.2-9.5
		c-0.1-1.4,1-3.4,3.2-3.8c1.9-0.4,3.2-0.2,3.6,2.1c0.3,1.6,0.9,3.2,1.4,4.8c0.1,0.5,0.2,1.3,0.4,1.3c3.5,0.7,2.1,5.1,4.8,6.3
		c0.3,0.1,0.6,0.5,0.5,0.8c-0.1,7.1,4.5,13.6,2.1,21c-1.1,3.5,0.6,7.1,1.3,10.6c0.5,2.3,2.9,3.5,4.5,5c1.7,1.6,2.5,3.2,2.7,5.6
		c0.4,6.3,5.5,10.2,8.2,15.3c0.1,0.2,0.9,0.4,1.3,0.2c1-0.3,0.6-1.2,0.5-1.8c-0.4-2-2-3.2-3.3-4.7c-1.8-2.1-2.6-4.4-2.5-8.2
		c3.4,5.5,6.5,10,10.1,14.2c0.4,0.4,0.4,1.1,0.5,1.7c0.4,1.6-0.6,3.4,1.1,4.7c3.6,2.8,7,7,11.3,7.4c5.2,0.4,8.6,4.1,13.2,5.2
		c1.7,0.4,2.8,2.1,3.8,3.7c2.1,3.5,5.1,5.7,9.4,5.6c2.3,0,3.8,1.3,4.6,3.4c0.7,2.1-0.5,3.4-2,4.6c-1.7,1.4-3.5,2.8-1.7,5.3
		c0.1,0.1,0.1,0.3,0.1,0.3c-2.8,4.7,1.7,6.4,3.8,9c0.6,0.7,1.6,1.4,1.7,2.2c0.9,4.5,4.2,6.3,7.9,7.9c3.5,1.6,4.7,6.5,3.3,11.4
		c-0.8,2.6,0.6,5.6-1.4,8.2c-0.6,0.7,0.7,1.6,1.5,2.1C163.5,326.5,163,327.8,162.6,328.8z M305.4,149.1c-0.9,0.6-1.2-0.3-1.6-0.9
		c-1.5-2.6-2.9-5.3-4.5-7.8c-0.7-1.1-0.8-2.9-3.3-2.2c-1.4,0.4-2-2.3-3.2-3.5c-0.7-0.7-0.8-2.5-2.6-1.8c-1.2,0.5-2.6,0.7-2.3,2.6
		c0.1,0.6-0.1,1.3-0.8,1.4c-3.3,0.9-2.8,3.1-2.2,5.6c1.2,5-0.2,9.3-4.8,12c-2.9,1.7-3.4,3.6-2.3,6.4c0.7,1.7,0.9,3.4,0.1,5.2
		c-0.7,1.9,0,3.3,2.4,2.9c1.9-0.3,3.5-2.4,5.8-0.1c2.4,2.3,2.9,4.7,2.2,7.8c-2-0.4-1.7-2.4-2.6-3.5c-0.8-1-1.4-2.3-3.1-1.6
		c-1.7,0.7-0.9,1.9-0.7,3.1c0.3,1.3,0.5,2.6,0.9,3.9c0.4,1.4,0.8,2.6-1.5,2.4c-1.2-0.1-1.4,1.1-1.9,1.9c-1.2,2.1-2.3,4.2-3.5,6.3
		c-0.3,0.6-1.2,1.7-1.2,1.6c-2.8-1.7-3.9,2.2-6.3,1.8c-0.8-0.1-1.4,0.2-1.6,1.1c-0.2,1,0.4,1.4,1.2,1.9c1.3,0.7,2.9,1,3.5,2.8
		c1.7,5.5,0.5,6.9-5.2,5.9c-5.4-1-5.9-0.6-5.1,4.8c0.3,2.2-0.6,4.3-1,6.4c-0.3,1.8-0.2,3.3,2.1,3.2c2.9-0.2,2.5,2.3,2.7,3.8
		c0.3,1.7-0.3,3.3-2.7,3.4c-2.8,0.1-3.7,2.7-3.2,4.2c1.3,4.1-1.1,5.7-3.8,7c-3.7,1.8-5.9,4.5-7.2,8.4c-0.9,2.6-1.3,4.7,0.4,7.1
		c1.1,1.5,1.3,2.9-1,4c-2.1,1-1.9,5.8,0.1,7.3c1.7,1.2,3.6,2.1,3.3,4.9c-0.2,1.8,6,4.5,7.9,3.7c1.8-0.8,3.3-2,5.7-0.9
		c1.9,0.8,3.1-1.7,4.7-2.7c1.4-0.9,2.6-2.2,4.1-0.2c1,1.3,2.2,0.4,3.3,0c1.1-0.3,1.9-0.1,2.5,0.8c0.7,1-0.4,1.5-0.8,2.1
		c-0.6,0.8-1.4,1.4-1.8,2.2c-0.7,1.4-1.3,3.4,0.6,4c3.9,1.2,2.2,3.7,1.6,5.8c-0.5,1.7-1.6,3.3-2.7,4.7c-2.6,3.2-3.4,7-2.7,10.8
		c0.5,2.7-0.8,3.8-2.6,5.2c-29.2,23.1-62.4,31.6-99.8,27c2.6-3.8,5.7-5.9,9.8-6.2c1.7-0.1,3-0.3,3.8-1.9c0.6-1.3,1.5-2.2,3.1-1.3
		c0.5,0.3,1.5,0.4,1.6-0.1c0.9-2.9,4.7-3.1,5.6-6.5c0.6-2.4,3.4-4.3,6.5-4.3c3.7-0.1,8.3-4.1,8.2-7.9c-0.1-2.6,1-4,2.9-5.3
		c0.9-0.6,1.8-1.3,2.6-2c2.6-2.4,2-5.8-1.2-7.1c-2.9-1.1-5.6-2.8-9-1.8c-1.2,0.4-2.1-0.5-2.9-1.2c-1.6-1.3-3.3-2-5.3-1.8
		c-2.4,0.2-3.7-0.6-4-3.3c-0.4-3.5-3.7-5.9-7.4-5.5c-2.3,0.3-3.9-0.4-5.4-2c-1.4-1.5-4-2-5-3.3c-3-3.6-6.4-1.9-9.8-2
		c-2.6,0-4.1-2.3-6.1-3.5c-2-1.3-3.6-2.2-4.3,1.2c-0.6,2.6-4.9,4.5-7.2,3.2c-1.4-0.8-2.7-0.9-4.1-0.9c-3.2,0.1-5.2-1.5-4.7-4.8
		c0.5-3.7-1.8-5.4-4.5-5.7c-2.8-0.4-2.7-1.6-2.5-3.6c0.1-1,0-2,0.2-2.9c0.4-2.2-1-3.2-2.6-3.7c-1.9-0.6-2.2,1.3-2.9,2.5
		c-0.7,1.1,0.2,3.1-2,3.2c-2.2,0.2-4.1-0.5-5.6-2c-3.5-3.7-3.3-12.3,0-16c2.1-2.3,3.8-2.1,5.5,0.2c1.2,1.7,2,2.1,3.5,0.2
		c1.9-2.6,6.7-2.1,8.3,0.6c1,1.7,2.2,3.2,3.2,4.8c0.9,1.4,2.3,1.8,3.4,1.1c1.1-0.8,1-2.3-0.2-3.5c-0.5-0.5-1.2-1-1.4-1.6
		c-1.5-4.6-3.5-7.4,3.1-10.1c3.1-1.2,4.7-3.3,5.4-6.5c0.9-4.2,1.6-8.6,7.1-9.6c1.4-0.2,1-1.7,1.1-2.7c0.4-2.9,4.6-6.7,7.3-6.4
		c1.8,0.1,0.8,1.3,0.5,2.1c-0.3,0.9-0.3,1.7,0.6,2.1c0.9,0.4,1.5-0.3,1.7-0.8c1.1-2.6,4.2-1.4,5.8-3.1c0.9-0.9,2.5-1.5,1.9-3.1
		c-0.5-1.4-1.9-0.4-2.9-0.7c-2.6-0.7-5.2-1.3-5.7-4.6c-0.1-0.8-0.1-1.8-1.3-1.8c-0.9,0-1.5,0.6-2.1,1.3c-2.1,2.6-3.9,3.5-7.2,3.5
		c2.6-1.7,4.5-3.5,5.8-6c0.9-1.7,5-1.4,6.2,0.3c0.9,1.3,1.9,1.9,3.3,1.4c2-0.7,0.7-1.8,0.3-2.8c-0.3-0.9,0.4-1.7,1-1.3
		c2.6,1.8,4.5-3.4,6.8-0.7c1,1.1-0.5,2.2-1.2,3.1c-1,1.3-2,2.6-1.3,4.2c0.7,1.5,2.2,0.5,3.2,0.5c1.3-0.1,2,0.8,2.6,1.6
		c1.2,1.5,2.7,1.3,4.3,1.3c1.5,0.1,1.5-1.2,1.9-2.2c-2.8-0.9-1-5.8-5-5.8c-1.3,0-1.7-0.7-1.5-1.9c0.3-1.5,0.3-3.1,0.9-4.6
		c0.9-2.2,0.8-3.9-1.7-4.9c-1-0.4-1.4-1.2-1.5-2.3c0-0.9-0.3-1.5-1.4-1.7c-5-1-5.5-1.6-5.3-6.3c0-0.5-0.4-1.1-0.8-1.5
		c-1.8-2-3.1-4.3-3.9-6.9c-0.3-0.9-0.5-2-1.8-1.8c-1.5,0.2-1.1,1.3-1.1,2.2c0.2,1.7-0.1,3.1-1.8,3.9c-1.8,0.8-3.3-0.8-5.1-0.6
		c-0.6,0-0.6-1-0.4-1.8c1.2-5.1-2-9.2-7.3-9.4c-0.2,0-0.5,0-0.7,0c-3.6-0.8-4.9,0.7-4.6,4.3c0.1,2.2,0.5,4.5-1.5,6.4
		c-1,1-0.5,2.2,0.6,3c2.5,1.8,3,5.8,0.5,7.4c-2.7,1.9-3,4.4-2.3,6.9c0.6,2.1,0.1,4.1-1.6,4.3c-1.5,0.1-3.7-1.2-3.5-3.8
		c0.1-0.8-0.1-1.7,0-2.5c0.4-3.3-0.9-4.5-4.1-3.6c-1.2,0.3-1.9-0.2-2.5-0.9c-1.4-1.6-3.3-2.2-5.2-3c-3.1-1.4-4.4-4.8-6.3-7.5
		c-0.9-1.3,0-3.2,1.1-5c2.6-4.2,5.8-7.6,9.4-10.9c1.1-1,1.3-3,2-4.8c1.4,1.2,1.1,2.6,0.4,3.8c-0.8,1.3-0.6,2.6,0.5,3.1
		c1.1,0.5,2.9,1.4,3.7-0.5c0.5-1.1,1-0.8,1.5-0.3c1,0.8,2.2,0.8,2.9-0.1c0.7-1.1,0-2.3-0.7-3.3c-1.1-1.3-3.8-1.6-2.2-4.4
		c0.8-1.6,1.2-3.2,2.8-4.4c1.8-1.4,1-8.1-1-8.8c-1.8-0.7-3.8-1.4-4.1,1.8c-0.1,1.9-2.3,2.9-2.3,5c0,0.5-1,0.6-1.4-0.1
		c-0.2-0.4-0.2-0.9-0.3-1.4c-0.4-1.2,0.8-3.4-1-3.7c-2-0.3-0.8,2.4-2.1,3.4c-1.6-2.3-2.1-4.7-2.3-7.3c-0.1-1.2,0.4-2.8-1-3.5
		c-0.7-0.3-1.9-0.2-2.2,0.7c-0.6,1.6-2.5,2.9-1.2,4.9c0.2,0.4,0.5,0.8,0.8,1.2c0.5,0.7,0.9,1.5,0.2,2.3c-0.9,1-1.5-0.2-2.1-0.5
		c-2.8-1.4-3.4-1.1-3.4,2.2c0,2.6-2.9,4.9-5.2,4.4c-1.1-0.2-1.6-0.8-1.8-1.9c-0.2-0.9,0.3-1.3,0.8-2c1.5-2,5.4-3.4,1.7-7.2
		c-1.3-1.3-1.7-4.5-0.1-6.8c0.7-1,1.2-2.3,0.1-2.7c-0.9-0.4-2.4,0.3-2.8,1.7c-0.5,1.8-1,3.7-1.5,6c-1.6-1-2.9-1.9-4.3-2.8
		c-4.9-3.3-10.3-1.5-12.5,4.2c0,0.1-0.1,0.2-0.1,0.4c-0.1,1.6-2,3.5-0.1,4.6c1.8,1,2.6-1.5,3.9-2.7c1.1,2.1,2.4,3.8,4.8,1.6
		c0.7-0.6,1.5-0.5,1.9,0.1c0.6,0.9-0.2,1.6-0.9,2c-0.5,0.3-1.1,0.3-1.7,0.5c-1,0.2-2.5,0-2.8,1.2c-0.4,1.5,1.6,1.2,2.1,1.9
		c1.1,1.7,2.3,1.8,4.3,1.7c1.8-0.1,0.9,2.5,1.8,3.8c-1.6-0.3-2.6-1.5-4.3-1.3c-1.5,0.2-2.4,1.4-3.8,1.8c-1.2-1.3,1.9-3.3-0.9-4.2
		c-2.7-0.9-5.4-1-8,0c-2.5,1-5.5,1.3-6.5,4.7c-0.4,1.2-2.7,0.7-4.6,0.5c5.9-10.6,13-19.9,21.3-28.4c1-1.1,1.4-0.5,2.4,0.2
		c4.6,2.9,6.2,3.8,9.3-0.1c0.8-1,1.9-0.5,2.8-1.3c2.2-1.8,2.4-3.7,0.2-5.5c-1-0.8-1.8-0.2-2,0.6c-0.9,5.7-2.9,2.1-4.6,0.6
		c-2.6,0-3.1,3.2-5.9,3.1c1.8-1.5,3.5-3,5.3-4.5c8.6-7.4,18.1-13.6,29-18.7c-1,2.2-3.1,3.5-1.7,6c1.3,2.2,2.3,2.1,3.8,0.6
		c0.4-0.5,0.5-1.5,1.5-0.9c0.6,0.4,0.5,1,0.4,1.6c-0.2,0.7-0.3,1.5-0.6,2.1c-0.6,1-2.2,1.8-0.9,3c1,0.9,2.8,0.8,3.7,0.1
		c2-1.7,3.8-1.6,6.3-0.9c1.5,0.4,4.4,0.4,4-2.9c-0.1-1.1,0.2-2.2,1.1-2.4c2.9-0.6,3.7-2.8,4.7-5.1c0.8-2,2.4-3.3,4.6-4.2
		c2.4-0.9,4.5-2.7,5.9-5c0.7-1.1,5.9-2.6,6.9-1.9c0.6,0.4,0.7,1,0.2,1.5c-0.9,0.8-1.8,1.4-3,1.9c-1.1,0.5-6.5-0.4-1.2,3
		c0.8,0.5-0.1,2.5-1.1,2.2c-3.4-1.2-5.2,2-7.9,2.5c-0.9,0.2-1.6,0.5-1.2,1.7c0.3,0.8,0.5,1.6,1.6,1.5c1.6-0.1,3.1-0.1,4.7-0.1
		c0.6,0,1.2-0.1,1.3,0.8c0,0.8-0.2,1.4-1.2,1.4c-1.6,0-3.1,0.1-4.7,0.2c-0.9,0-2.2,0.9-1.5,1.2c2,1,2.4,4.3,5.4,3.6
		c1.4-0.3,2.9-0.2,4.3-0.7c4.2-1.5,7.1,0.2,10.1,3.2c2.9,3,4.2,7.4,3.2,10.2c-1.6,4.9-1.3,5.4,3.5,4.2c1.2-0.3,2.8,1.3,2.4,3
		c-0.4,1.8-1.6,1.2-2.7,0.4c-1.1-0.7-2.1-0.4-2.4,1c-0.4,1.9-0.5,3.9,1.2,4.9c1,0.6,2.9,0.3,3.5-1.3c0.3-0.8,0.2-2.3,1.5-1.8
		c1.2,0.5,0,1.7,0,2.5c0,1.6-0.3,3-2.1,3.8c-2.1,0.9-4,6.7-2.4,8.1c1.5,1.3,1.8,2.7,1.9,4.2c0.1,2.3,1.5,1.8,3.1,1.5
		c-0.5,2.2-2,4.1-0.9,6.3c0.6,1.3,0.5,2.9,2.5,3c0.9,0,1.1,0.8,1.4,1.5c0.1,0.2,0,0.6,0.2,0.7c2.8,1.7,5.5,3.4,8.4,5
		c0.2,0.1,1.2-0.5,1.2-0.7c-0.4-2.8,1.9-4.6,2.9-6.7c1.8-3.7,1.4-7.5,2.4-11.2c0.5-1.9,1.5-1.7,2.8-1.7c4.2,0,7.9-2.4,9.2-6.3
		c0.5-1.6,1.7-1.3,2.7-1.7c2.4-1,6.1,0.8,7.3-3.1c0-0.2,0.6-0.2,1-0.3c4.7-0.6,6.4-4,4-8.2c-1.3-2.2-0.3-4.8-1.4-7
		c-0.3-0.5,0.1-1.9,1.2-1.9c2.7,0,2.7-1.3,1.7-3.2c-0.3-0.7-0.1-0.9,0.5-0.6c1.3,0.6,1.7,0.1,1.9-1.1c0.2-1.5-0.9-1.5-1.8-1.8
		c-2.6-0.7-4.2-2.4-5.9-4.5c1.2-1,3.4,0.2,3.5-2c0.1-1.9-1.8-1.6-2.6-2.5c-0.9-0.9-3-0.8-2.6-2.5c0.4-1.8,0.1-4.3,2.7-5
		c0.7-0.2,1.8-0.8,1.7-1.1c-0.4-3,1.5-1.3,2.3-1c15.6,6.4,29.4,15.3,41.5,27c10.1,9.8,18.4,21,24.9,33.5c0.3,0.5,0.5,1.1,0.8,1.6
		C306.1,148,306.1,148.6,305.4,149.1z"/>
</g>
</svg>
